<svg width="34" height="35" viewBox="0 0 34 35" fill="none" xmlns="http://www.w3.org/2000/svg">
<rect y="0.985596" width="34" height="34" rx="4" fill="#2E1834"/>
<path d="M9.02625 16.7162C9.02625 16.3047 8.99321 15.8768 9.04271 15.4653C9.09193 15.0701 9.20724 14.6751 9.28965 14.2966C9.66821 14.4283 10.0798 14.4941 10.409 14.6916C12.3843 15.9756 14.3595 17.276 16.2854 18.6257C16.9767 19.103 17.4541 19.0372 18.1124 18.5762C20.1041 17.1605 22.1617 15.8108 24.2028 14.4611C24.9765 13.9509 25.3715 14.1483 25.3552 15.1032C25.3386 16.3212 25.2892 17.5558 25.1741 18.7575C25.1412 19.0537 24.8778 19.4158 24.6308 19.6133C22.4417 21.1771 20.2194 22.6914 18.0138 24.2222C17.3554 24.6831 16.7463 24.568 16.1208 24.1235C14.2114 22.7901 12.3185 21.4404 10.3432 20.2059C9.3556 19.5969 8.87832 18.8727 9.02654 17.7204C9.0593 17.3746 9.02625 17.0455 9.02625 16.7162Z" fill="white"/>
<path d="M9.15625 21.5885C10.9668 22.8065 12.5965 23.8931 14.2096 25.0123C14.7858 25.4073 14.7858 25.9177 14.2096 26.329C12.5965 27.4319 10.9505 28.5183 9.15625 29.7198C9.15625 26.9544 9.15625 24.3867 9.15625 21.5885Z" fill="#FFCC29"/>
<path d="M25.104 21.6708C25.104 24.4362 25.104 26.8888 25.104 29.3085C24.9558 29.3412 24.8735 29.3743 24.8408 29.3577C23.2275 28.3042 21.5981 27.2508 20.0013 26.148C19.8367 26.0327 19.7875 25.3743 19.919 25.2756C21.5487 24.0904 23.2111 22.9547 25.104 21.6708Z" fill="#FFCC29"/>
<path d="M21.0329 13.1825C20.7543 10.7176 18.9414 6 16.7116 6C15.6582 6 14.6123 7.09337 13.7669 9.07844C13.208 10.3909 12.7935 11.9821 12.6815 13.1809C12.3872 13.2484 12.168 13.5108 12.168 13.8251C12.168 14.1906 12.4641 14.4868 12.8306 14.4868C13.1961 14.4868 13.4922 14.1906 13.4922 13.8251C13.4922 13.5464 13.3198 13.3086 13.0761 13.211C13.1839 12.0552 13.5872 10.5114 14.1314 9.2337C14.5828 8.17366 15.5181 6.39586 16.7116 6.39586C18.5362 6.39586 20.3742 10.7224 20.6407 13.2081C20.3925 13.3034 20.2161 13.5435 20.2161 13.8251C20.2161 14.1906 20.5122 14.4868 20.8779 14.4868C21.2443 14.4868 21.5404 14.1906 21.5404 13.8251C21.5404 13.5129 21.324 13.2519 21.0328 13.1823L21.0329 13.1825Z" fill="#FEFEFE"/>
</svg>
